<?xml version="1.0" encoding="UTF-8" standalone="no"?>
<!-- Uploaded to: SVG Repo, www.svgrepo.com, Generator: SVG Repo Mixer Tools -->

<svg
   fill="#000000"
   version="1.1"
   id="Capa_1"
   width="800"
   height="800"
   viewBox="0 0 29.334 29.334"
   xml:space="preserve"
   xmlns="http://www.w3.org/2000/svg"
   xmlns:svg="http://www.w3.org/2000/svg"><defs
   id="defs1" />
<rect
   style="fill:#000000;fill-opacity:1;stroke-width:0.0399854"
   id="rect1"
   width="29.334"
   height="29.334"
   x="1.8310547e-07"
   y="1.8310547e-07"
   ry="0.035800379" /><path
   d="m 14.666341,5.0013089 c -5.3300682,0 -9.6650321,4.3362819 -9.6650321,9.6656911 0,5.32941 4.3349639,9.665692 9.6650321,9.665692 5.330069,0 9.666351,-4.336282 9.666351,-9.665692 0,-5.3294092 -4.336282,-9.6656911 -9.666351,-9.6656911 z m 0,16.6953451 c -3.876293,0 -7.0289945,-3.15336 -7.0289945,-7.029654 0,-3.876293 3.1527015,-7.0296535 7.0289945,-7.0296535 3.876953,0 7.030313,3.1533605 7.030313,7.0296535 0,3.876294 -3.154679,7.029654 -7.030313,7.029654 z M 17.741279,14.667 c 0,1.698267 -1.376671,3.075597 -3.074938,3.075597 -1.697608,0 -3.074938,-1.376671 -3.074938,-3.075597 0,-1.698267 1.37733,-3.075597 3.074938,-3.075597 1.698267,0 3.074938,1.37733 3.074938,3.075597 z"
   id="path1"
   style="display:inline;fill:#ffffff;fill-opacity:1;stroke-width:0.65901" />
</svg>
